PathFileType	4	(X/Y/Z)	/Users/itak/Documents/Research/Walk-IL/dataset/trc/00051_00006.trc
DataRate	CameraRate	NumFrames	NumMarkers	Units	OrigDataRate	OrigDataStartFrame	OrigNumFrames
100.000000	100.000000	4	53	mm	100.000000	197	527
Frame#	Time	RPSI			LPSI			L3			STRN			T10			C7			CLAV			RBAK			LBAK			LSHO			LUPA			LAEL			LAOL			LWTS			LWPS			LFRA			LIFD			LHPS			LHTS			RSHO			RUPA			RAEL			RAOL			RWTS			RWPS			RFRA			RIFD			RHTS			RHPS			RBHD			LFHD			RFHD			LBHD			LHIP			RHIP			RASI			LASI			LKNE			LTHI			LANK			LTIP			LTOE			LMT1			LMT5			LHEE			RKNE			RTHI			RANK			RTIP			RTOE			RMT1			RMT5			RHEE			
		X1	Y1	Z1	X2	Y2	Z2	X3	Y3	Z3	X4	Y4	Z4	X5	Y5	Z5	X6	Y6	Z6	X7	Y7	Z7	X8	Y8	Z8	X9	Y9	Z9	X10	Y10	Z10	X11	Y11	Z11	X12	Y12	Z12	X13	Y13	Z13	X14	Y14	Z14	X15	Y15	Z15	X16	Y16	Z16	X17	Y17	Z17	X18	Y18	Z18	X19	Y19	Z19	X20	Y20	Z20	X21	Y21	Z21	X22	Y22	Z22	X23	Y23	Z23	X24	Y24	Z24	X25	Y25	Z25	X26	Y26	Z26	X27	Y27	Z27	X28	Y28	Z28	X29	Y29	Z29	X30	Y30	Z30	X31	Y31	Z31	X32	Y32	Z32	X33	Y33	Z33	X34	Y34	Z34	X35	Y35	Z35	X36	Y36	Z36	X37	Y37	Z37	X38	Y38	Z38	X39	Y39	Z39	X40	Y40	Z40	X41	Y41	Z41	X42	Y42	Z42	X43	Y43	Z43	X44	Y44	Z44	X45	Y45	Z45	X46	Y46	Z46	X47	Y47	Z47	X48	Y48	Z48	X49	Y49	Z49	X50	Y50	Z50	X51	Y51	Z51	X52	Y52	Z52	X53	Y53	Z53	

198	1.97	792.5808715820312	1018.015014648438	-155.8048400878906	761.2017822265625	1008.018859863281	-327.7030029296875	782.95849609375	1075.828979492188	-249.1063690185547	1049.314208984375	1257.302978515625	-266.9736022949219	776.8050537109375	1211.50341796875	-254.0220642089844	851.4782104492188	1473.053100585938	-268.7509765625	1025.419677734375	1373.3427734375	-270.2804870605469	784.911376953125	1340.967895507812	-185.5759735107422	823.7291870117188	1434.682006835938	-368.2561950683594	926.4459838867188	1429.963623046875	-442.1223754882812	906.2928466796875	1302.131469726562	-515.2908325195312	930.3360595703125	1086.63134765625	-531.781982421875	867.7254028320312	1072.493530273438	-448.4859924316406	1038.531860351562	860.4891357421875	-451.0770874023438	983.1697387695312	839.8836669921875	-511.3768920898438	958.9572143554688	978.6083374023438	-532.7327880859375	1067.89453125	678	-418.0955200195312	1022.686706542969	762.6127319335938	-499.7394104003906	1067.645385742188	780.1842651367188	-446.6215515136719	921.7716064453125	1438.74853515625	-94.52961730957031	909.2801513671875	1374.993286132812	-27.60842323303223	860.3233032226562	1119.787963867188	27.86419677734375	871.7959594726562	1087.987670898438	-65.39099884033203	989.7316284179688	860.0220947265625	-2.198562145233154	922.2459106445312	849.170166015625	51.63309097290039	869.1842651367188	1038.004028320312	41.6465950012207	981.8247680664062	675.5933227539062	-21.00610542297363	1011.861145019531	757.5397338867188	0.4257359206676483	958.5154418945312	758.0873413085938	56.52602005004883	901.9210815429688	1650.175415039062	-337.3797607421875	1069.173706054688	1669.467407226562	-201.1029663085938	1078.69921875	1675.927368164062	-326.5974426269531	900.0740356445312	1635.697143554688	-200.4796905517578	851.7529296875	945.2715454101562	-434.2283630371094	866.0179443359375	943.142333984375	-86.91307067871094	986.392578125	957.5628051757812	-123.7372360229492	969.5538940429688	949.5081176757812	-389.7055358886719	933.7576293945312	470.0308837890625	-394.0254516601562	903.811279296875	617.071533203125	-425.7402954101562	602.1663208007812	106.6214065551758	-407.8547058105469	753.4703979492188	281.0381774902344	-414.5192565917969	785.1861572265625	32.26348495483398	-381.4247436523438	739.5203857421875	54.18655395507812	-335.1002197265625	690.4152221679688	49.62627792358398	-435.6156005859375	554.954833984375	140.6540832519531	-336.4317626953125	1034.86279296875	514.9955444335938	-123.7796020507812	976.5219116210938	777.718505859375	-88.78742218017578	967.3857421875	33.5332145690918	-132.2847747802734	1029.109497070312	385.3507690429688	-117.8078231811523	1183.923461914062	27.03106117248535	-168.8987579345703	1123.160400390625	33.01883697509766	-210.5280303955078	1092.196166992188	34.80712127685547	-116.709342956543	921.032958984375	35.65150833129883	-188.3231506347656	
199	1.98	787.8941650390625	1017.26513671875	-156.8027954101562	756.1371459960938	1007.369079589844	-328.619140625	778.0858154296875	1075.036987304688	-250.1973876953125	1044.254028320312	1256.700317382812	-268.3640747070312	771.8671264648438	1210.689453125	-255.2396697998047	846.2833862304688	1472.3125	-269.9403686523438	1020.312377929688	1372.73291015625	-271.5494689941406	779.8594360351562	1340.13623046875	-186.7977447509766	818.48583984375	1433.993286132812	-369.4461364746094	921.2155151367188	1429.386474609375	-443.3536376953125	901.2575073242188	1301.485595703125	-516.463623046875	925.6722412109375	1085.956176757812	-532.6036987304688	862.9638061523438	1071.838989257812	-449.3865966796875	1034.163818359375	860.166748046875	-451.3699035644531	978.93603515625	839.3538818359375	-511.7339172363281	954.4935302734375	977.9849853515625	-533.3421020507812	1063.736328125	677.7467041015625	-418.0686340332031	1018.56298828125	762.184814453125	-499.9274597167969	1063.383178710938	779.8853759765625	-446.7220153808594	916.6004028320312	1438.018798828125	-95.78221893310547	904.0692749023438	1374.284301757812	-28.87286567687988	854.49658203125	1119.248046875	26.32896995544434	866.1617431640625	1087.435668945312	-66.92038726806641	983.1676025390625	859.084228515625	-3.274386167526245	915.5045166015625	848.482421875	50.35733032226562	863.0068969726562	1037.457641601562	40.10725784301758	974.64306640625	674.6744995117188	-22.06060981750488	1004.913818359375	756.5100708007812	-0.5614639520645142	951.3878784179688	757.2618408203125	55.35393905639648	896.8484497070312	1649.659423828125	-338.4497680664062	1064.045654296875	1668.642456054688	-202.0478363037109	1073.67822265625	1675.245239257812	-327.5718688964844	894.9559936523438	1635.063110351562	-201.5570678710938	846.4423828125	944.5180053710938	-435.3612365722656	861.6708374023438	942.556640625	-88.1082763671875	982.0308227539062	957.0625610351562	-125.2878875732422	964.2897338867188	948.7875366210938	-391.3149719238281	924.9554443359375	469.2058410644531	-393.3382568359375	896.1102294921875	616.1614379882812	-425.8306274414062	596.7056884765625	103.2033004760742	-406.5572204589844	746.2926635742188	278.9011840820312	-413.5634460449219	780.3837280273438	32.1489143371582	-379.6766052246094	734.3231201171875	52.33193588256836	-333.3766479492188	685.5845336914062	47.25822067260742	-434.2081298828125	549.0652465820312	136.8177185058594	-335.1178283691406	1033.060302734375	515.3053588867188	-124.6591491699219	973.0247192382812	777.6527709960938	-89.98753356933594	967.3742065429688	33.51178359985352	-132.1965484619141	1027.820434570312	385.6777954101562	-118.3711395263672	1183.938110351562	27.06430816650391	-168.9153289794922	1123.197265625	33.08232116699219	-210.5473175048828	1092.24267578125	34.68716049194336	-116.6162719726562	921.0279541015625	35.66717147827148	-188.1983947753906	
200	1.99	783.0340576171875	1016.459655761719	-157.8853912353516	750.8740234375	1006.673461914062	-329.6354675292969	773.03857421875	1074.2216796875	-251.3830718994141	1039.057861328125	1256.024658203125	-269.8640441894531	766.7819213867188	1209.84326171875	-256.5325622558594	840.9874877929688	1471.53857421875	-271.1978149414062	1015.088989257812	1372.052856445312	-272.9157409667969	774.6898803710938	1339.272216796875	-188.0853271484375	813.12353515625	1433.268920898438	-370.7017822265625	915.8560180664062	1428.76513671875	-444.6681518554688	896.0592041015625	1300.7958984375	-517.728271484375	920.8274536132812	1085.233154296875	-533.5347290039062	858.0299682617188	1071.132690429688	-450.3701782226562	1029.687255859375	859.8327026367188	-451.7891845703125	974.5657958984375	838.7828369140625	-512.1828002929688	949.86376953125	977.3125610351562	-534.0538940429688	1059.542236328125	677.4844970703125	-418.1519165039062	1014.34814453125	761.714599609375	-500.2048950195312	1059.038696289062	779.5879516601562	-446.953369140625	911.3599243164062	1437.211669921875	-97.10948181152344	898.7937622070312	1373.4873046875	-30.22083473205566	848.5733642578125	1118.632446289062	24.70802116394043	860.4240112304688	1086.806884765625	-68.53916168212891	976.4953002929688	858.0747680664062	-4.481106758117676	908.6654663085938	847.7142333984375	48.95991897583008	856.7293701171875	1036.831176757812	38.47441101074219	967.3557739257812	673.6857299804688	-23.27112579345703	997.8602905273438	755.4111328125	-1.694104671478271	944.1633911132812	756.3563232421875	54.04181289672852	891.6898193359375	1649.10302734375	-339.5642700195312	1058.828247070312	1667.753662109375	-203.0423583984375	1068.572631835938	1674.526123046875	-328.599609375	889.7591552734375	1634.36376953125	-202.6809997558594	840.91796875	943.6838989257812	-436.5671081542969	857.11376953125	941.9338989257812	-89.39666748046875	977.4733276367188	956.5386352539062	-126.9032669067383	958.8323974609375	948.0037231445312	-392.9813842773438	916.068603515625	468.4026794433594	-392.6365661621094	888.2639770507812	615.229248046875	-425.9525451660156	591.9105834960938	99.43912506103516	-405.28515625	739.3770751953125	276.5220947265625	-412.5960388183594	776.5192260742188	32.26012802124023	-378.4027099609375	730.0338745117188	50.37166213989258	-331.9634094238281	681.5620727539062	44.94020080566406	-433.087646484375	543.7857666015625	132.2617950439453	-333.6737365722656	1031.055419921875	515.6171875	-125.6331329345703	969.3283081054688	777.5697021484375	-91.27615356445312	967.390380859375	33.51659774780273	-132.1402587890625	1026.375	386.0195007324219	-119.0208053588867	1183.962280273438	27.09919166564941	-168.9358825683594	1123.224243164062	33.12562561035156	-210.5648498535156	1092.289672851562	34.58660888671875	-116.5500946044922	921.0245971679688	35.68036651611328	-188.0978851318359	
201	2	778.0059814453125	1015.609375	-159.05419921875	745.4024658203125	1005.929565429688	-330.7488098144531	767.8120727539062	1073.392822265625	-252.6632843017578	1033.72509765625	1255.27392578125	-271.4711608886719	761.5415649414062	1208.974487304688	-257.9082946777344	835.5956420898438	1470.739624023438	-272.5240783691406	1009.751220703125	1371.301879882812	-274.3776245117188	769.3999633789062	1338.384765625	-189.4446105957031	807.6505737304688	1432.51513671875	-372.02734375	910.3788452148438	1428.101440429688	-446.0668029785156	890.706298828125	1300.063110351562	-519.0877075195312	915.8047485351562	1084.4609375	-534.5792236328125	852.92626953125	1070.375122070312	-451.4437561035156	1025.095825195312	859.4845581054688	-452.3319091796875	970.0533447265625	838.1675415039062	-512.7205200195312	945.0689697265625	976.58984375	-534.8702392578125	1055.30908203125	677.2103271484375	-418.3363952636719	1010.035522460938	761.2009887695312	-500.5667724609375	1054.607543945312	779.2918701171875	-447.3140563964844	906.0493774414062	1436.32470703125	-98.50990295410156	893.450927734375	1372.5966796875	-31.65470504760742	842.5474853515625	1117.934326171875	23.00305557250977	854.58056640625	1086.09326171875	-70.24257659912109	969.721923828125	856.9909057617188	-5.810675144195557	901.7321166992188	846.85986328125	47.44424819946289	850.3549194335938	1036.118530273438	36.7535400390625	959.9830932617188	672.6253051757812	-24.63304710388184	990.7156982421875	754.243408203125	-2.96333122253418	936.852294921875	755.3673095703125	52.59496688842773	886.4536743164062	1648.50927734375	-340.7205505371094	1053.52783203125	1666.806518554688	-204.0831604003906	1063.3876953125	1673.773559570312	-329.67431640625	884.4845581054688	1633.598510742188	-203.8494720458984	835.1698608398438	942.7682495117188	-437.8446350097656	852.3515014648438	941.28173828125	-90.77227020263672	972.7072143554688	955.9956665039062	-128.5899353027344	953.1724853515625	947.1551513671875	-394.7050476074219	907.1417236328125	467.6154479980469	-391.9255676269531	880.2894897460938	614.27099609375	-426.0972290039062	587.7342529296875	95.42711639404297	-403.9970703125	732.7374877929688	273.9334411621094	-411.5936279296875	773.5122680664062	32.52810668945312	-377.5421447753906	726.6018676757812	48.39976119995117	-330.8233032226562	678.2811279296875	42.74665451049805	-432.2020568847656	539.0751342773438	127.1150131225586	-332.078125	1028.824584960938	515.932861328125	-126.6862030029297	965.4216918945312	777.4777221679688	-92.64829254150391	967.4320068359375	33.54682540893555	-132.1129913330078	1024.748413085938	386.3810119628906	-119.7358779907227	1183.993774414062	27.12868118286133	-168.9566497802734	1123.243041992188	33.15087890625	-210.5700531005859	1092.33642578125	34.50188446044922	-116.5029449462891	921.0248413085938	35.69336318969727	-188.0218048095703	
